<svg width="312" height="425" viewBox="0 0 312 425" fill="none" xmlns="http://www.w3.org/2000/svg">
<g opacity="0.2">
<path fill-rule="evenodd" clip-rule="evenodd" d="M164.496 250.202C233.575 250.202 289.576 194.193 289.576 125.101C289.576 56.0097 233.575 0 164.496 0C95.4161 0 39.416 56.0097 39.416 125.101C39.416 194.193 95.4161 250.202 164.496 250.202ZM164.498 187.661C199.037 187.661 227.038 159.656 227.038 125.111C227.038 90.5648 199.037 62.56 164.498 62.56C129.958 62.56 101.958 90.5648 101.958 125.111C101.958 159.656 129.958 187.661 164.498 187.661Z" fill="#DBB32F"/>
<path d="M133.24 265.851C195.767 273.092 219.205 312.766 328.664 265.851C328.664 265.851 273.967 367.496 156.692 328.4C39.4175 289.304 0.338469 304.165 0.338469 304.165C0.338469 304.165 70.7125 258.611 133.24 265.851Z" fill="#DBB32F"/>
</g>
</svg>
